HIERARCHY
ROOT Hips
{
  OFFSET 0.0 0.0 0.0
  CHANNELS 6 XPOSITION YPOSITION ZPOSITION ZROTATION XROTATION YROTATION 
  JOINT LeftUpLeg
  {
    OFFSET 0.08945800000000001 -0.0866707 0.0010165200000000001
    CHANNELS 3 ZROTATION XROTATION YROTATION 
    JOINT LeftLeg
    {
      OFFSET 0.0 -0.444227 0.013727000000000001
      CHANNELS 3 ZROTATION XROTATION YROTATION 
      JOINT LeftFoot
      {
        OFFSET -0.0025354900000000005 -0.42092399999999996 -0.014605900000000002
        CHANNELS 3 ZROTATION XROTATION YROTATION 
        End Site
        {
          OFFSET -0.0004 -0.0441509 0.08499100000000001
        }
      }
    }
  }
  JOINT Spine
  {
    OFFSET 0.0 0.118905 0.0
    CHANNELS 3 ZROTATION XROTATION YROTATION 
    JOINT Spine1
    {
      OFFSET 0.0 0.25657399999999997 0.00127663
      CHANNELS 3 ZROTATION XROTATION YROTATION 
      End Site
      {
        OFFSET -0.0029 0.21508359999999999 0.02525291
      }
      JOINT RightArm
      {
        OFFSET -0.162727 -0.05365632 0.0010212299999999997
        CHANNELS 3 ZROTATION XROTATION YROTATION 
        JOINT RightForeArm
        {
          OFFSET -0.26364 0.00099144 -0.0142434
          CHANNELS 3 ZROTATION XROTATION YROTATION 
          End Site
          {
            OFFSET -0.220324 0.0008536199999999999 0.010221599999999999
          }
        }
      }
      JOINT LeftArm
      {
        OFFSET 0.162727 -0.053656319900000006 0.0010212299999999997
        CHANNELS 3 ZROTATION XROTATION YROTATION 
        JOINT LeftForeArm
        {
          OFFSET 0.26259699999999997 0.00099144 -0.0142434
          CHANNELS 3 ZROTATION XROTATION YROTATION 
          End Site
          {
            OFFSET 0.220902 0.0008536199999999999 0.010221599999999999
          }
        }
      }
    }
  }
  JOINT RightUpLeg
  {
    OFFSET -0.08945800000000001 -0.0866707 0.0010165200000000001
    CHANNELS 3 ZROTATION XROTATION YROTATION 
    JOINT RightLeg
    {
      OFFSET 0.0 -0.444227 0.013727000000000001
      CHANNELS 3 ZROTATION XROTATION YROTATION 
      JOINT RightFoot
      {
        OFFSET 0.0025354900000000005 -0.42092399999999996 -0.014605900000000002
        CHANNELS 3 ZROTATION XROTATION YROTATION 
        End Site
        {
          OFFSET 0.0004 -0.0441509 0.08499100000000001
        }
      }
    }
  }
}
MOTION
Frames: 5
Frame Time: 0.033333
-0.151978 0.9646258376523148 -0.0668731 10.020499668113068 -0.8169760020981501 -85.98699998971804 1.2506600373868735 -28.98820051684246 2.1321099303204765 1.4874900166678955 64.92400115553019 8.495290251918895 -14.208648723759827 -10.004529832059932 -0.7345394607975044 10.488000503591053 7.801579527545611 -1.5677499687791285 -5.862540048597766 3.6035903037389794 0.12399900279232705 77.34616182168077 -19.117477505717666 12.744193840232917 6.441350342545333 14.70970030221456 26.109999781734107 -74.03347226290039 2.0249406337049796 4.585651978076338 -5.8709300822194805 18.555100220026326 -38.83059873347921 3.3115399525656963 -22.45710020794269 9.66795945410286 -1.517650104330262 48.71529972674045 -19.061801218698307 5.773829124770817 -26.377067008470778 0.8631271634331033 
-0.19890000000000002 0.9932628376523147 -0.0687564 8.063979173758222 -2.491479906613874 -83.09199698925146 0.6284140091862561 -26.74330175176686 3.2197099801655793 1.4871100873953136 65.12989720806023 8.916019659507924 -13.909829655119061 5.467614241919398 1.0581438985540708 8.160930293931967 2.7847902142456125 -0.7590759548954232 -5.886219887563377 5.791109930257773 0.7342239914352144 76.70039475641273 -19.02135966862266 8.707931116254317 5.325970205798496 17.45620132974673 29.62709982690004 -70.96962698615108 1.9790567035213034 7.456174299897127 -2.4141499989348705 22.550299846714807 -51.84480019688649 0.02770330063442461 -13.814100285033101 5.419209971931986 -1.221249989872739 41.58580142201398 -16.931400329774213 7.802645890829779 -22.433215036415156 0.9913247982340708 
-0.246407 1.0282468376523148 -0.0685854 5.419009762011941 -3.525629884222219 -80.4532968373896 0.46927401661954404 -23.045901787985517 4.048680007889684 1.5192099487819637 62.40390040841644 11.686900193508807 -12.520756154366996 17.949303421781213 2.277077707246235 6.60041989878623 -0.8511450372773439 -0.3881709897130639 -6.1692300564833245 7.597719725161887 1.1979499734580041 76.15266139630191 -18.248911377271117 5.355988033427056 4.427600120021773 19.17830034027663 32.20640123864488 -68.58561092806067 2.4306075531834277 9.439737220723346 -1.06889995239296 23.400999907839896 -61.485499512238185 -1.6376499113016276 -5.903150218968546 2.1612099512793157 -1.044469966557411 36.12170131242255 -15.180399373771404 11.440738468274255 -11.739396173695878 0.5677953866113054 
-0.289009 1.063422837652315 -0.06570140000000001 3.0303099016981836 -3.5224700679574417 -79.5728991137533 0.8340589455425867 -19.327200171730198 4.569519925030414 1.5236698488665703 57.92299578456459 13.87149863349695 -10.822268254024184 19.32441003945425 2.0850025425017216 7.240690369319688 -2.416569806891759 -0.008919580055695353 -7.849680281001779 8.307059629903453 1.858929897720058 75.96790477925306 -18.20050924171782 3.4692940570611306 3.7857800503203687 20.330100753225267 34.90109869641709 -67.09779082115679 1.7014987331063183 11.331249682105303 -3.7109198963565597 22.527000363908602 -67.65189674776325 -2.0879401641750617 -2.777910079317294 0.02380469835879542 -0.9587850299761896 36.21340001712456 -13.436600852248374 12.991055659857395 4.536070354230746 -0.9973283210711005 
-0.32412399999999997 1.0901728376523148 -0.0623431 1.7089299789232921 -3.309640092759375 -80.16610104316891 0.49023095798384725 -17.586900414609506 3.9315896480613315 1.3395500402361233 53.40170083705588 13.704999112099548 -10.410160252715002 10.587894581523429 1.2210066643835573 8.237750285300747 -1.7048700717919543 0.5264629770966492 -10.066600029916069 7.544950537408014 2.5312999094750483 75.80429442787458 -19.114019722450344 2.5298222407367983 3.1176699421733507 21.39409908439339 38.61140088754058 -66.70270535880657 0.13336265853588564 12.977028158849482 -7.979099559168827 21.643201206065633 -71.0805970695963 -2.616629889662841 -5.240240232657435 -0.6954220069254894 -0.9204210313469916 41.678702240009905 -10.880200211016941 11.484814532761993 17.36373081366851 -2.152685661751728 
